<?xml version="1.0" encoding="iso-8859-1"?>
<!-- Generator: Adobe Illustrator 19.0.0, SVG Export Plug-In . SVG Version: 6.00 Build 0)  -->
<svg version="1.1" id="Capa_1" xmlns="http://www.w3.org/2000/svg" xmlns:xlink="http://www.w3.org/1999/xlink" x="0px" y="0px"
	 viewBox="0 0 58.778 58.778" style="enable-background:new 0 0 58.778 58.778;" xml:space="preserve">
<g>
	<g>
		<path d="M39.389,48.229h-29V11.186l6.682,6.682c0.195,0.195,0.451,0.293,0.707,0.293s0.512-0.098,0.707-0.293
			c0.391-0.391,0.391-1.023,0-1.414l-8.389-8.389c-0.391-0.391-1.023-0.391-1.414,0l-8.389,8.389c-0.391,0.391-0.391,1.023,0,1.414
			s1.023,0.391,1.414,0l6.682-6.682v38.043c0,0.552,0.448,1,1,1h30c0.552,0,1-0.448,1-1S39.941,48.229,39.389,48.229z"/>
		<path d="M58.485,40.91c-0.391-0.391-1.023-0.391-1.414,0l-6.682,6.682V9.229c0-0.552-0.448-1-1-1h-30c-0.552,0-1,0.448-1,1
			c0,0.552,0.448,1,1,1h29v37.364l-6.682-6.682c-0.391-0.391-1.023-0.391-1.414,0s-0.391,1.023,0,1.414l8.389,8.389
			c0.195,0.195,0.451,0.293,0.707,0.293s0.512-0.098,0.707-0.293l8.389-8.389C58.876,41.934,58.876,41.301,58.485,40.91z"/>
	</g>
</g>
<g>
</g>
<g>
</g>
<g>
</g>
<g>
</g>
<g>
</g>
<g>
</g>
<g>
</g>
<g>
</g>
<g>
</g>
<g>
</g>
<g>
</g>
<g>
</g>
<g>
</g>
<g>
</g>
<g>
</g>
</svg>
