<?xml version="1.0" encoding="iso-8859-1"?>
<!-- Generator: Adobe Illustrator 19.0.0, SVG Export Plug-In . SVG Version: 6.00 Build 0)  -->
<svg version="1.1" id="Layer_1" xmlns="http://www.w3.org/2000/svg" xmlns:xlink="http://www.w3.org/1999/xlink" x="0px" y="0px"
	 viewBox="0 0 511.999 511.999" style="enable-background:new 0 0 511.999 511.999;" xml:space="preserve">
<g>
	<g>
		<path d="M437.867,163.045v61.524H199.298c-6.891-29.131-33.095-50.878-64.301-50.878H74.132V98.793H0v314.412h74.132v-37.25
			h363.736v37.25h74.132V163.045H437.867z M43.715,173.691v50.878v30.417v120.97v6.833H30.417V129.211h13.297V173.691z
			 M74.132,204.108h60.866c14.231,0,26.543,8.378,32.262,20.461H74.132V204.108z M437.867,345.538H74.132v-20.281h363.736V345.538z
			 M437.867,294.84H74.132v-39.855h126.952h236.784V294.84z M481.583,382.788h-13.297v-6.833V224.568v-31.107h13.297V382.788z"/>
	</g>
</g>
<g>
</g>
<g>
</g>
<g>
</g>
<g>
</g>
<g>
</g>
<g>
</g>
<g>
</g>
<g>
</g>
<g>
</g>
<g>
</g>
<g>
</g>
<g>
</g>
<g>
</g>
<g>
</g>
<g>
</g>
</svg>
